<svg width="224" height="26" viewBox="0 0 224 26" fill="none" xmlns="http://www.w3.org/2000/svg">
<path d="M129.713 1.21945C129.847 0.511914 130.466 0 131.186 0H222.187C223.128 0 223.837 0.856244 223.661 1.78055L219.282 24.7806C219.147 25.4881 218.529 26 217.808 26H126.807C125.866 26 125.157 25.1438 125.333 24.2194L129.713 1.21945Z" fill="#004ADD"/>
<path d="M144.991 18.4346L143.312 15.5838C143.312 15.5838 142.134 16.7395 140.129 16.7395C137.773 16.7395 136.345 14.9417 136.721 12.2707C137.072 9.59964 139.001 7.80184 141.357 7.80184C143.362 7.80184 144.214 8.95757 144.214 8.95757L146.67 6.10676C146.67 6.10676 145.342 4.23191 141.808 4.23191C136.42 4.23191 132.861 8.46959 132.861 13.3493C132.861 17.2275 135.217 20.3351 139.603 20.3351C143.136 20.3351 144.991 18.4346 144.991 18.4346Z" fill="white"/>
<path d="M153.656 12.322L154.082 9.18872H153.53C152.127 9.18872 151.15 9.65101 150.423 10.6526H150.273L149.897 9.18872H147.716L146.238 19.9755H149.847L150.573 14.7619C150.774 13.2209 151.776 12.322 153.104 12.322H153.656Z" fill="white"/>
<path d="M161.764 7.21113L165.222 3.82098L161.162 3.48711L159.458 7.21113H161.764ZM163.443 18.9739L162.54 16.5854C162.54 16.5854 161.363 17.4073 159.834 17.4073C158.33 17.4073 157.553 16.7909 157.578 15.3269H164.445C164.445 15.3269 164.671 14.351 164.671 13.4264C164.671 10.627 163.067 8.93189 160.335 8.93189C156.852 8.93189 154.12 11.7313 154.12 15.3526C154.12 18.1264 155.899 20.3094 159.182 20.3094C161.914 20.3094 163.443 18.9739 163.443 18.9739ZM159.859 11.6029C160.886 11.6029 161.363 12.2963 161.262 13.3237H157.879C158.28 12.1679 159.007 11.6029 159.859 11.6029Z" fill="white"/>
<path d="M173.866 10.1647H173.716C173.716 10.1647 173.29 8.93189 171.285 8.93189C168.228 8.93189 165.671 11.68 165.671 15.481C165.671 18.4089 167.35 20.2324 169.857 20.2324C172.237 20.2324 173.24 18.5887 173.24 18.5887H173.39L173.791 19.9755H176.147L178.277 4.43737H174.668L173.866 10.1647ZM173.515 14.0685C173.515 15.892 172.513 17.2018 171.059 17.2018C169.982 17.2018 169.355 16.3029 169.355 15.0187C169.355 13.2466 170.383 11.9625 171.786 11.9625C172.889 11.9625 173.515 12.7843 173.515 14.0685Z" fill="white"/>
<path d="M182.1 7.80184C183.353 7.80184 184.456 6.85157 184.456 5.56742C184.456 4.51442 183.704 3.76962 182.651 3.76962C181.373 3.76962 180.321 4.74557 180.321 6.0554C180.321 7.08272 181.048 7.80184 182.1 7.80184ZM180.07 9.18872L178.592 19.9755H182.2L183.679 9.18872H180.07Z" fill="white"/>
<path d="M186.992 9.18872H185.262L184.862 12.0395H186.591L186.014 16.3029C185.714 18.5373 186.44 20.2324 189.022 20.2324C190.124 20.2324 191.352 19.7958 192.054 19.2821L191.427 16.7652C191.427 16.7652 190.976 17.0734 190.45 17.0734C189.798 17.0734 189.573 16.7138 189.648 16.1231L190.199 12.0395H192.555L192.956 9.18872H190.6L191.052 5.9013H187.443L186.992 9.18872Z" fill="white"/>
<path d="M204.727 13.8887C204.727 10.8838 202.647 8.93189 199.865 8.93189C196.482 8.93189 193.424 11.5515 193.424 15.3526C193.424 18.3062 195.504 20.2324 198.311 20.2324C201.644 20.2324 204.727 17.6898 204.727 13.8887ZM198.712 17.3302C197.609 17.3302 196.958 16.457 196.958 15.0958C196.958 13.1953 197.985 11.8341 199.464 11.8341C200.542 11.8341 201.193 12.733 201.193 14.0685C201.193 15.9947 200.166 17.3302 198.712 17.3302Z" fill="white"/>
<path d="M206.734 16.5854L205.33 19.1023C205.33 19.1023 206.584 20.2324 209.841 20.2324C213.601 20.2324 215.154 18.5116 215.154 16.3029C215.154 12.6559 210.142 13.4778 210.142 12.245C210.142 11.8084 210.568 11.5772 211.32 11.5772C213.149 11.5772 214.503 12.5532 214.503 12.5532L215.881 9.90784C215.881 9.90784 214.428 8.93189 211.245 8.93189C208.112 8.93189 206.358 10.6013 206.358 12.81C206.358 16.4056 211.245 15.6865 211.245 16.945C211.245 17.3045 210.919 17.6384 209.917 17.6384C208.263 17.6384 206.734 16.5854 206.734 16.5854Z" fill="white"/>
<path d="M52.0023 2.59206C50.5233 2.59206 49.4737 3.71663 49.426 5.28125C49.426 6.50361 50.1416 7.23703 51.4298 7.23703C52.9088 7.23703 53.9584 6.11245 54.0061 4.54783C54.0539 3.32547 53.2905 2.59206 52.0023 2.59206Z" fill="#004ADD"/>
<path d="M41.3179 14.5709C41.2225 15.0599 41.0793 15.451 40.8885 15.8911C40.6977 16.2822 40.4114 16.6245 40.1251 16.9178C39.8389 17.2112 39.5049 17.4068 39.1232 17.6024C38.4076 17.8957 37.5488 17.9446 36.8809 17.6513C36.5946 17.5046 36.3083 17.3579 36.1175 17.1134C35.9267 16.869 35.7358 16.5756 35.6404 16.2333C35.545 15.8911 35.4973 15.4999 35.4973 15.1088C35.545 14.6198 35.6404 14.1309 35.8312 13.6419C36.0221 13.2019 36.2606 12.8107 36.5946 12.4685C36.8809 12.1262 37.2625 11.8817 37.6919 11.6862C38.1213 11.4906 38.5507 11.3928 38.9801 11.3928C39.3618 11.3928 39.7434 11.4906 40.0774 11.6372C40.4114 11.7839 40.6499 12.0284 40.8885 12.2729C41.0793 12.5662 41.2702 12.9085 41.3179 13.2997C41.4133 13.6419 41.4133 14.082 41.3179 14.5709ZM47.4725 3.2274C47.4248 3.17851 47.3293 3.12964 47.2339 3.12964H44.0374C43.8942 3.12964 43.7988 3.22743 43.7511 3.37411C43.7511 3.37411 42.5106 9.68148 42.4152 10.1215C41.6041 8.6547 40.0297 7.77461 38.0736 7.77461C34.1614 7.77461 31.3465 11.0016 31.3465 15.4021C31.3465 19.0203 33.4934 21.5139 36.6423 21.5139C38.169 21.5139 39.5049 20.8783 40.5068 19.7537C40.4591 20.0471 40.3637 20.3894 40.316 20.7805C40.316 20.8783 40.316 20.9761 40.3637 21.025C40.4114 21.0739 40.5068 21.1228 40.6022 21.1228H43.7988C43.9419 21.1228 44.0373 21.025 44.0851 20.8783L47.4725 3.52079C47.5679 3.3741 47.5202 3.2763 47.4725 3.2274Z" fill="#004ADD"/>
<path d="M52.5283 9.14388H49.1886C49.0455 9.14388 48.95 9.24165 48.9023 9.33943L46.66 20.7319C46.66 20.8296 46.66 20.8785 46.7077 20.9763C46.7554 21.0252 46.8508 21.0741 46.9462 21.0741H50.2382C50.3814 21.0741 50.4768 20.9763 50.5245 20.8785L52.7668 9.48614C52.7668 9.38835 52.7668 9.33946 52.7191 9.24167C52.6714 9.14388 52.576 9.14388 52.5283 9.14388Z" fill="#004ADD"/>
<path d="M9.35116 11.2464C9.35116 11.2464 6.15459 11.2464 6.05917 11.2464C6.05917 11.1486 6.91795 6.94365 6.91795 6.74808C7.06108 6.74808 9.97138 6.79699 9.97138 6.79699C11.4504 6.79699 12.2615 7.48151 12.2615 8.75276C12.2615 10.3663 11.2118 11.2464 9.35116 11.2464ZM4.34161 19.9985C4.67558 18.4828 5.29581 15.0601 5.29581 14.9623C5.43894 14.9623 9.20803 15.0112 9.20803 15.0112C13.6928 15.0112 16.4599 12.5665 16.4599 8.60606C16.4599 5.13455 14.1699 3.08099 10.3054 3.08099H3.67367C3.53054 3.08099 3.43512 3.17878 3.38741 3.32547L0 20.5852C0 20.683 2.91128e-06 20.7808 0.0477129 20.8297C0.0954229 20.8786 0.190843 20.9275 0.286263 20.9275H1.62214H3.29199C3.24428 20.9275 4.15077 20.9275 4.34161 19.9985Z" fill="#004ADD"/>
<path d="M76.1449 17.5535C74.5227 17.5535 73.5208 16.6245 73.5208 15.0109C73.5208 13.0063 74.9044 11.5883 76.7651 11.5883C78.3872 11.5883 79.3891 12.5173 79.3891 14.1308C79.3891 16.1355 78.0533 17.5535 76.1449 17.5535ZM77.0036 7.72566C72.662 7.72566 69.5132 10.9038 69.5132 15.3043C69.5132 19.0692 72.0418 21.465 75.9063 21.465C80.2479 21.465 83.3968 18.2869 83.3968 13.8864C83.3968 10.1215 80.9159 7.72566 77.0036 7.72566Z" fill="#004ADD"/>
<path d="M63.8853 14.5709C63.7899 15.0599 63.6468 15.451 63.4559 15.8911C63.2651 16.2822 62.9788 16.6245 62.6926 16.9178C62.4063 17.2112 62.0724 17.4068 61.6907 17.6024C60.975 17.8957 60.1162 17.9446 59.4483 17.6513C59.162 17.5046 58.8758 17.3579 58.6849 17.1134C58.4941 16.869 58.3033 16.5756 58.2078 16.2333C58.1124 15.8911 58.0647 15.4999 58.0647 15.1088C58.1124 14.6198 58.2078 14.1309 58.3987 13.6419C58.5895 13.2019 58.8281 12.8107 59.162 12.4685C59.4483 12.1262 59.83 11.8817 60.2594 11.6862C60.6888 11.4906 61.1182 11.3928 61.5475 11.3928C61.9292 11.3928 62.3109 11.4906 62.6449 11.6372C62.9788 11.7839 63.2174 12.0284 63.4559 12.2729C63.6468 12.5662 63.8376 12.9085 63.8853 13.2997C63.9807 13.6419 63.9807 14.082 63.8853 14.5709ZM69.9922 3.2274C69.9445 3.17851 69.8491 3.12964 69.7537 3.12964H66.5571C66.414 3.12964 66.3185 3.22743 66.2708 3.37411C66.2708 3.37411 65.0304 9.68148 64.935 10.1215C64.1239 8.6547 62.5495 7.77461 60.5933 7.77461C56.6811 7.77461 53.8662 11.0016 53.8662 15.4021C53.8662 19.0203 56.0132 21.5139 59.162 21.5139C60.6888 21.5139 62.0246 20.8783 63.0266 19.7537C62.9788 20.0471 62.8834 20.3894 62.8357 20.7805C62.8357 20.8783 62.8357 20.9761 62.8834 21.025C62.9311 21.0739 63.0266 21.1228 63.122 21.1228H66.3185C66.4617 21.1228 66.5571 21.025 66.6048 20.8783L69.9922 3.52079C70.0876 3.3741 70.0399 3.2763 69.9922 3.2274Z" fill="#004ADD"/>
<path d="M93.9894 8.7037C92.3195 7.92139 90.602 7.57913 89.0275 7.72581C86.2604 7.97028 84.6859 9.63269 84.9245 12.1263C85.0676 13.5931 85.8787 14.7666 87.4531 15.5978L89.2184 16.5268C89.934 16.918 89.9817 17.1136 90.0295 17.3091C90.0772 17.847 89.5047 17.9936 89.123 17.9936C88.0256 18.0914 86.6898 17.6514 85.3062 16.7713C85.2585 16.7224 85.163 16.7224 85.0676 16.7224C84.9722 16.7224 84.9245 16.7713 84.8768 16.8691L83.4932 19.4116C83.3978 19.5583 83.4455 19.7049 83.5886 19.8027C85.3062 21.0251 87.31 21.5629 89.3615 21.3674C92.415 21.074 94.0371 19.4116 93.8463 16.8202C93.7031 15.2556 92.9875 14.2288 91.2699 13.3487L89.6955 12.5175C88.789 11.9796 88.7413 11.8818 88.6936 11.6374C88.6936 11.4907 88.6459 11.0995 89.5046 11.0017C90.3634 10.904 91.5085 11.1973 92.6535 11.7352C92.7012 11.7841 92.7966 11.7841 92.8921 11.7352C92.9875 11.6863 93.0352 11.6374 93.0352 11.5885L94.1325 9.04597C94.1802 8.94818 94.1325 8.80149 93.9894 8.7037Z" fill="#004ADD"/>
<path d="M111.26 3.61869C111.212 3.5209 111.117 3.4231 110.973 3.4231H106.441C106.346 3.4231 106.25 3.47198 106.202 3.56977C106.202 3.56977 101.718 10.1216 101.384 10.7084C101.288 10.1216 99.0937 3.66757 99.0937 3.66757C99.046 3.52088 98.9505 3.4231 98.8074 3.4231H94.8475C94.7521 3.4231 94.6566 3.47198 94.6089 3.56977C94.5612 3.66756 94.5135 3.76537 94.5612 3.86316L98.7597 14.7666L97.5192 21.1229C97.5192 21.2207 97.5192 21.3185 97.5669 21.3674C97.6147 21.4162 97.7101 21.4651 97.8055 21.4651H101.002C101.431 21.4651 101.765 21.1718 101.861 20.7317L102.958 14.8644L111.212 3.91204C111.307 3.86315 111.355 3.71647 111.26 3.61869Z" fill="#004ADD"/>
<path d="M116.078 14.9133C115.983 15.3534 115.84 15.7934 115.649 16.1357C115.458 16.5268 115.219 16.8202 114.933 17.1136C114.647 17.4069 114.313 17.6025 113.979 17.7492C113.311 18.0426 112.452 18.0426 111.88 17.7981C111.593 17.7003 111.355 17.5047 111.164 17.2603C110.973 17.0158 110.83 16.7713 110.687 16.429C110.591 16.0868 110.544 15.7445 110.544 15.3534C110.591 14.8644 110.687 14.4244 110.878 13.9843C111.069 13.5443 111.307 13.1531 111.593 12.8598C111.88 12.5175 112.214 12.273 112.643 12.0775C113.025 11.8819 113.454 11.7841 113.883 11.7841C114.265 11.7841 114.599 11.8819 114.933 12.0285C115.219 12.1752 115.506 12.3708 115.696 12.6642C115.887 12.9087 116.03 13.2509 116.126 13.6421C116.126 14.0332 116.126 14.4244 116.078 14.9133ZM120.897 8.55705C120.849 8.50816 120.754 8.45926 120.706 8.45926H117.605C117.462 8.45926 117.366 8.55705 117.319 8.70373C117.319 8.70373 117.223 9.29048 117.128 9.73053C116.412 8.85043 115.315 8.31259 114.217 8.2637C113.215 8.2148 112.261 8.36149 111.307 8.75264C108.254 9.975 106.202 13.0553 106.202 16.429C106.25 19.3627 108.111 21.3674 110.973 21.5141C112.5 21.6119 113.836 21.1229 115.076 20.0472C115.028 20.3406 114.933 20.7806 114.885 21.074C114.885 21.1718 114.885 21.2207 114.933 21.3185C114.981 21.3674 115.076 21.4163 115.124 21.4163H118.225C118.368 21.4163 118.464 21.3185 118.511 21.1718L120.897 8.85041C120.992 8.70372 120.944 8.60595 120.897 8.55705Z" fill="#004ADD"/>
<path d="M20.8012 12.8107C21.3737 11.3439 22.471 10.6104 24.0455 10.6104C25.6676 10.6104 26.4787 11.3439 26.5264 12.8107C26.2878 12.8107 21.0397 12.8107 20.8012 12.8107ZM24.0932 7.72566C19.7993 7.72566 16.6981 10.9038 16.6981 15.3043C16.6981 19.1181 19.1791 21.465 23.1867 21.465C24.9997 21.465 26.4787 20.9761 28.1008 19.9004C28.2439 19.8026 28.244 19.607 28.1485 19.4603L26.1924 17.3579C26.097 17.2601 25.9539 17.2601 25.8585 17.309C24.9997 17.7979 24.1886 17.9935 23.2821 17.9935C21.4691 17.9935 20.3718 17.1134 20.3718 15.6466L29.3413 15.5977C29.4844 15.5977 29.5798 15.4999 29.6275 15.3532C29.8184 14.4242 29.9615 13.7397 29.9615 13.0063C29.9615 9.73033 27.7191 7.72566 24.0932 7.72566Z" fill="#004ADD"/>
</svg>
